<?xml version="1.0" standalone="no"?>
<!DOCTYPE svg PUBLIC "-//W3C//DTD SVG 20010904//EN"
 "http://www.w3.org/TR/2001/REC-SVG-20010904/DTD/svg10.dtd">
<svg version="1.0" xmlns="http://www.w3.org/2000/svg"
 width="500.000000pt" height="500.000000pt" viewBox="0 0 500.000000 500.000000"
 preserveAspectRatio="xMidYMid meet">
<metadata>
Created by potrace 1.14, written by Peter Selinger 2001-2017
</metadata>
<g transform="translate(0.000000,500.000000) scale(0.100000,-0.100000)"
fill="#000000" stroke="none">
<path d="M2349 4996 c-2 -2 -40 -6 -84 -10 -44 -3 -89 -8 -100 -10 -11 -2 -40
-7 -65 -10 -88 -12 -253 -51 -342 -82 -38 -12 -68 -20 -68 -17 0 3 -6 1 -12
-4 -7 -5 -35 -18 -63 -28 -251 -90 -549 -271 -767 -466 -288 -256 -511 -571
-657 -923 -73 -176 -131 -393 -166 -616 -25 -167 -26 -500 0 -665 3 -16 7 -43
9 -60 62 -402 223 -781 471 -1110 116 -153 158 -199 300 -333 239 -225 545
-409 870 -522 69 -24 145 -48 180 -56 6 -1 37 -9 70 -17 33 -9 76 -18 95 -21
19 -3 44 -7 55 -10 143 -29 459 -40 655 -24 82 7 103 10 180 24 19 4 46 8 60
10 32 4 121 24 140 31 8 3 20 7 25 7 34 5 204 62 315 106 110 43 298 144 424
227 553 366 937 932 1071 1578 9 44 18 87 20 96 20 96 32 293 30 464 -4 188
-16 307 -50 465 -3 14 -7 34 -9 45 -30 155 -144 462 -226 611 -192 346 -417
607 -715 831 -274 205 -600 356 -925 428 -105 23 -165 35 -215 40 -33 4 -69 9
-80 12 -24 5 -421 13 -426 9z"/>
</g>
</svg>
